<svg width="224" height="309" viewBox="0 0 224 309" fill="none" xmlns="http://www.w3.org/2000/svg">
<rect width="224" height="309" rx="10" fill="#FFFAEB"/>
<path fill-rule="evenodd" clip-rule="evenodd" d="M48 177.139V169.639H50.9V177.139C50.9 179.339 52 180.439 53.8 180.439C55.6 180.439 56.7 179.339 56.7 177.239V169.639H59.6V177.139C59.6 181.139 57.3 183.139 53.8 183.139C50.3 183.139 48 181.139 48 177.139ZM64.3999 169.639H67.2999V175.439L72.6999 169.639H76.1999L70.7999 175.239L76.4999 182.939H72.9999L68.8999 177.239L67.3999 178.739V182.839H64.4999V169.639H64.3999ZM52.5996 194.339L51.4996 191.839L50.3996 194.339H52.5996ZM50.9996 190.539H51.9996L54.7996 196.839H53.6996L53.0996 195.339H50.0996L49.3996 196.839H48.2996L50.9996 190.539ZM62 195.938L62.7 195.138C63.2 195.638 64 195.938 64.7 195.938C65.4 195.938 65.8 195.638 65.8 195.138C65.8 194.638 65.6 194.438 64.4 194.138C63.1 193.838 62.3 193.438 62.3 192.238C62.3 191.138 63.2 190.338 64.3 190.438H64.4C65.2 190.438 66 190.738 66.7 191.238L66.1 192.039C65.6 191.638 65 191.438 64.3 191.438C63.6 191.438 63.3 191.738 63.3 192.138C63.3 192.638 63.6 192.838 64.8 193.138C66 193.438 66.8 193.938 66.8 194.938C66.8 196.138 65.9 196.838 64.5 196.838C63.6 196.938 62.7 196.539 62 195.938ZM74.0996 195.938L74.7996 195.138C75.2996 195.638 76.0996 195.938 76.7996 195.938C77.4996 195.938 77.8996 195.638 77.8996 195.138C77.8996 194.638 77.6996 194.438 76.4996 194.138C75.1996 193.838 74.3996 193.438 74.3996 192.238C74.4996 191.138 75.3996 190.338 76.3996 190.438H76.4996C77.2996 190.438 78.0996 190.738 78.7996 191.238L78.1996 192.039C77.6996 191.638 77.0996 191.438 76.4996 191.338C75.7996 191.338 75.4996 191.638 75.4996 192.039C75.4996 192.539 75.7996 192.738 76.9996 193.039C78.1996 193.338 78.9996 193.838 78.9996 194.838C78.9996 196.039 78.0996 196.738 76.7996 196.738C75.7996 196.938 74.8996 196.539 74.0996 195.938ZM91.8995 193.738C91.8995 192.539 91.0005 191.539 89.7995 191.539H89.7005C88.5005 191.539 87.5995 192.539 87.5995 193.638V193.738C87.5995 194.938 88.5005 195.938 89.7005 195.938H89.7995C90.8995 195.938 91.8995 194.938 91.8995 193.738ZM86.3995 193.738C86.5005 191.938 88.0995 190.539 89.8995 190.638C91.5995 190.738 92.8995 192.039 93.0005 193.738C92.8995 195.539 91.2995 196.938 89.5005 196.839C87.8995 196.738 86.5005 195.438 86.3995 193.738ZM100.5 193.738C100.5 191.938 101.899 190.539 103.6 190.438H103.7C104.6 190.438 105.5 190.738 106.2 191.438L105.5 192.238C105 191.738 104.399 191.438 103.7 191.438C102.5 191.438 101.6 192.438 101.6 193.539V193.638C101.5 194.839 102.399 195.839 103.6 195.839H103.7C104.399 195.839 105 195.539 105.5 195.039L106.2 195.738C105.6 196.438 104.6 196.839 103.6 196.839C101.8 196.839 100.399 195.438 100.399 193.738C100.5 193.839 100.5 193.738 100.5 193.738ZM113.899 196.839V190.539H115V196.839H113.899ZM126.899 194.339L125.799 191.839L124.7 194.339H126.899ZM125.299 190.539H126.299L129.099 196.839H127.899L127.299 195.339H124.299L123.7 196.839H122.599L125.299 190.539ZM137.399 191.539H135.399V190.539H140.5V191.539H138.5V196.839H137.399V191.539ZM148.099 196.839V190.539H149.2V196.839H148.099ZM162.5 193.738C162.6 192.539 161.6 191.539 160.5 191.438H160.399C159.2 191.438 158.3 192.438 158.3 193.539V193.638C158.2 194.839 159.2 195.839 160.399 195.938H160.5C161.7 195.938 162.6 195.039 162.7 193.839C162.5 193.839 162.5 193.738 162.5 193.738ZM157 193.738C157.1 191.938 158.7 190.539 160.5 190.638C162.2 190.738 163.5 192.039 163.6 193.738C163.5 195.539 161.899 196.938 160.1 196.839C158.5 196.738 157.1 195.438 157 193.738ZM171.399 190.539H172.399L175.799 194.839V190.539H176.899V196.839H176L172.5 192.339V196.839H171.399V190.539Z" fill="#2C3E50"/>
<path fill-rule="evenodd" clip-rule="evenodd" d="M85.0988 176.339C86.1998 176.439 87.2988 175.639 87.3988 174.539V174.339C87.3988 173.039 86.4988 172.339 84.9988 172.339H82.6998V176.439L85.0988 176.339ZM79.7988 169.639H85.2988C88.4988 169.639 90.3988 171.539 90.3988 174.239C90.3988 177.339 87.9988 178.939 84.9988 178.939H82.7988V182.939H79.8988L79.7988 169.639ZM93.6994 172.739H96.5984V174.839C96.9994 173.439 98.3984 172.439 99.7994 172.639V175.639H99.6994C97.7994 175.639 96.5984 176.839 96.5984 179.239V183.039H93.6994V172.739ZM110.699 177.839C110.799 176.339 109.598 175.039 108.098 175.039H107.999C106.598 175.039 105.398 176.139 105.398 177.639V177.839C105.299 179.339 106.499 180.639 107.999 180.639H108.098C109.499 180.639 110.699 179.539 110.799 178.039C110.699 177.939 110.699 177.939 110.699 177.839ZM102.499 177.839C102.699 174.839 105.299 172.439 108.299 172.639C111.098 172.839 113.299 175.039 113.499 177.839C113.299 180.839 110.699 183.239 107.699 183.039C104.898 182.839 102.699 180.639 102.499 177.839ZM124.999 177.839C124.999 176.439 123.898 175.339 122.499 175.339C121.099 175.339 119.999 176.439 119.999 177.839C119.999 179.239 121.099 180.339 122.499 180.339C123.898 180.339 124.999 179.239 124.999 177.839ZM117.199 172.739H120.099V174.239C120.799 173.139 121.999 172.539 123.299 172.539C125.699 172.539 127.898 174.439 127.898 177.839C127.898 181.239 125.699 183.139 123.299 183.139C122.099 183.139 120.898 182.639 120.099 181.639V186.039H117.199V172.739ZM133.399 172.239H129.299V169.639H140.299V172.339H136.299V182.939H133.399V172.239ZM148.899 177.039C148.899 175.839 147.899 174.939 146.799 174.839C145.599 174.839 144.599 175.839 144.599 177.039H148.899ZM141.7 177.839C141.599 175.039 143.7 172.639 146.5 172.539H146.7C150.099 172.539 151.7 175.139 151.7 178.039V178.839H144.599C144.799 180.039 145.899 180.939 147.099 180.839C148 180.839 148.899 180.439 149.599 179.839L151.2 181.339C149.299 183.639 145.899 183.839 143.599 181.939C142.5 180.839 141.799 179.439 141.7 177.839ZM154.899 177.839C154.899 174.939 157.2 172.539 160.099 172.539H160.299C161.899 172.439 163.399 173.039 164.399 174.239L162.599 176.139C162 175.439 161.2 175.039 160.299 175.039C158.899 175.139 157.799 176.339 157.799 177.739V177.839C157.7 179.239 158.7 180.539 160.2 180.639H160.399C161.299 180.639 162.099 180.239 162.7 179.539L164.399 181.239C163.399 182.439 161.799 183.139 160.2 183.139C157.299 183.239 155 180.939 154.899 178.039C154.799 177.939 154.799 177.939 154.899 177.839ZM167.699 169.039H170.598V174.139C171.299 173.139 172.398 172.539 173.598 172.539C175.799 172.539 176.999 174.039 176.999 176.339V182.939H174.098V177.239C174.098 175.839 173.499 175.139 172.299 175.139C171.098 175.139 170.499 175.839 170.499 177.239V182.939H167.598V169.039H167.699Z" fill="#E74C3C"/>
<path fill-rule="evenodd" clip-rule="evenodd" d="M90.8744 141.176L97.8744 145.876C97.9744 145.876 97.9744 145.976 98.0744 146.075C98.2744 146.376 98.1744 146.676 97.8744 146.876L96.3744 147.876C96.1744 147.976 95.9744 147.976 95.7744 147.876L86.3744 141.575C86.2744 141.575 86.2744 141.476 86.1744 141.376C85.8744 140.976 85.9744 140.476 86.3744 140.176L101.574 130.176V133.576L90.8744 140.676C90.7744 140.676 90.7744 140.776 90.7744 140.776C90.6744 140.876 90.7744 141.075 90.8744 141.176Z" fill="#E74C3C"/>
<path fill-rule="evenodd" clip-rule="evenodd" d="M138.374 140.175L123.274 130.175V120.575C123.274 120.375 123.174 120.175 123.074 120.075L112.574 113.075C112.474 112.975 112.374 112.975 112.274 113.075L101.874 120.075C101.774 120.175 101.674 120.375 101.774 120.475L101.874 120.575L108.874 125.275L111.474 126.975L112.274 127.575L112.374 127.675V147.475C112.374 147.775 112.574 148.074 112.974 148.074C113.074 148.074 113.174 148.074 113.274 147.975L123.074 141.475C123.274 141.375 123.374 141.175 123.274 140.975V133.675L133.974 140.675C134.074 140.775 134.174 140.975 134.074 141.074C134.074 141.074 134.074 141.175 133.974 141.175L112.374 155.475L109.774 157.175L111.574 158.375C112.074 158.675 112.674 158.675 113.174 158.375L138.374 141.574C138.774 141.275 138.874 140.775 138.574 140.375C138.574 140.375 138.474 140.275 138.374 140.175Z" fill="url(#paint0_linear_1720_2490)"/>
<defs>
<linearGradient id="paint0_linear_1720_2490" x1="120.24" y1="139.301" x2="114.249" y2="154.359" gradientUnits="userSpaceOnUse">
<stop stop-color="#E74C3C"/>
<stop offset="1" stop-color="#E74C3C" stop-opacity="0"/>
</linearGradient>
</defs>
</svg>
