<svg width="95" height="25" viewBox="0 0 95 25" fill="none" xmlns="http://www.w3.org/2000/svg">
<path d="M8.79259 19.5156C2.92209 19.5156 0 15.6733 0 9.77135C0 3.67467 3.09022 0 9.12987 0C11.4615 0 13.3434 0.557073 14.7765 1.72642C16.1247 2.92388 16.8833 4.56599 17.0798 6.62565H14.7198C13.8771 6.62565 13.2593 6.2362 12.8936 5.4844C12.2474 4.12033 10.9834 3.42474 9.12886 3.42474C5.50487 3.42474 3.90354 5.95817 3.90354 9.77235C3.90354 13.4751 5.44815 16.0919 9.01643 16.0919C11.4605 16.0919 12.8653 14.7559 13.2866 12.6681H17.0788C16.7151 17.0374 13.6249 19.5156 8.79259 19.5156Z" fill="white"/>
<path d="M22.6983 2.11637V19.2371H18.9619V0.306641H20.9005C21.884 0.306641 22.6983 1.14175 22.6983 2.11637Z" fill="white"/>
<path d="M58.9356 23.1618C58.9356 24.3864 58.3178 24.9996 57.0821 24.9996H55.2002V10.9122C55.3967 6.51388 57.6999 4.3418 62.1666 4.3418C66.7741 4.3418 69.0773 6.81901 69.0773 11.7744C69.0773 16.7851 67.1104 19.3747 63.1501 19.5132C61.2966 19.5132 59.8917 18.7614 58.9366 17.2307V23.1618H58.9356ZM62.1099 16.2019C64.1326 16.2019 65.1718 14.7816 65.2558 11.9421C65.2558 8.96299 64.1883 7.4875 62.0532 7.4875C59.9181 7.4875 58.9072 8.96299 58.9346 11.9421C59.048 14.7826 60.0872 16.2019 62.1099 16.2019Z" fill="white"/>
<path d="M77.4486 19.5709C72.9535 19.4314 70.707 16.8428 70.707 11.8322C70.707 6.82151 72.9829 4.31519 77.5053 4.28809C82.2252 4.28809 84.4444 7.15575 84.1628 12.9182H74.5559C74.6967 15.1736 75.6791 16.3148 77.5053 16.3148C78.3764 16.3148 79.1907 15.9525 79.921 15.2569C80.2583 14.8945 80.6796 14.7279 81.185 14.7279H83.938C83.1226 17.8445 81.101 19.5709 77.4486 19.5709ZM74.6116 10.2723H80.2015C79.9767 8.3231 79.0499 7.32137 77.4486 7.32137C75.8473 7.32137 74.8922 8.3241 74.6116 10.2723Z" fill="white"/>
<path d="M85.9043 11.6363C86.0167 6.87557 88.5732 4.50977 93.5453 4.50977H94.079V8.35206H92.815C90.7366 8.35206 89.6964 9.4381 89.6964 11.5811V19.2365H85.9043V11.6363Z" fill="white"/>
<path d="M37.6276 11.9646H38.2049C38.211 6.82854 35.9351 4.28809 31.435 4.28809C26.9399 4.28809 24.6924 6.82151 24.6924 11.9436C24.6924 17.0104 26.9399 19.5719 31.435 19.5719C33.8354 19.5719 35.6018 18.8412 36.7281 17.3888V12.857C36.7271 12.3641 37.1302 11.9646 37.6276 11.9646ZM31.4066 16.2586C29.4964 16.2586 28.5129 14.8112 28.4845 11.9436C28.4845 9.02069 29.468 7.5452 31.4339 7.5452C33.3442 7.5452 34.2993 8.96448 34.2993 11.8321C34.272 14.755 33.3168 16.2586 31.4066 16.2586Z" fill="white"/>
<path d="M37.7906 15.1836C38.0549 15.1836 38.2686 15.3954 38.2686 15.6574C38.2686 15.9193 38.0549 16.1311 37.7906 16.1311C37.5262 16.1311 37.3125 15.9193 37.3125 15.6574C37.3125 15.3964 37.5262 15.1836 37.7906 15.1836Z" fill="white"/>
<path d="M46.6322 4.28711C42.1311 4.28711 39.8836 6.82756 39.8897 11.9637H40.3546C40.8519 11.9637 41.255 12.3632 41.255 12.856V17.2513C42.3671 18.7931 44.1588 19.571 46.6322 19.571C51.1273 19.571 53.4022 17.0094 53.4022 11.9426C53.4022 6.82053 51.1273 4.28711 46.6322 4.28711ZM46.6039 16.2586C44.6936 16.2586 43.7102 14.8113 43.6828 11.9436C43.6828 9.02072 44.6663 7.54523 46.6322 7.54523C48.5425 7.54523 49.4976 8.96451 49.4976 11.8322C49.4703 14.755 48.5151 16.2586 46.6039 16.2586Z" fill="white"/>
</svg>
