<svg width="27" height="30" viewBox="0 0 27 30" fill="none" xmlns="http://www.w3.org/2000/svg">
<g clip-path="url(#clip0_1720_2334)">
<path d="M23.6875 1.875H3.0625C2.31658 1.875 1.60121 2.17132 1.07376 2.69876C0.546316 3.22621 0.25 3.94158 0.25 4.6875L0.25 25.3125C0.25 26.0584 0.546316 26.7738 1.07376 27.3012C1.60121 27.8287 2.31658 28.125 3.0625 28.125H11.1045V19.2006H7.41309V15H11.1045V11.7984C11.1045 8.15684 13.2725 6.14531 16.593 6.14531C18.1832 6.14531 19.8461 6.42891 19.8461 6.42891V10.0031H18.0139C16.2086 10.0031 15.6455 11.1234 15.6455 12.2725V15H19.6756L19.0311 19.2006H15.6455V28.125H23.6875C24.4334 28.125 25.1488 27.8287 25.6762 27.3012C26.2037 26.7738 26.5 26.0584 26.5 25.3125V4.6875C26.5 3.94158 26.2037 3.22621 25.6762 2.69876C25.1488 2.17132 24.4334 1.875 23.6875 1.875Z" fill="white"/>
</g>
<defs>
<clipPath id="clip0_1720_2334">
<rect width="26.25" height="30" fill="white" transform="translate(0.25)"/>
</clipPath>
</defs>
</svg>
