<svg width="135" height="136" viewBox="0 0 135 136" fill="none" xmlns="http://www.w3.org/2000/svg">
<path d="M134.519 79.2498V53.0699C134.519 47.4976 129.985 42.9766 124.397 42.9766H91.709V135.5H124.397C129.985 135.5 134.519 130.979 134.519 125.407V99.3316C134.519 93.7591 129.985 89.2381 124.397 89.2381C129.985 89.2381 134.519 84.7171 134.519 79.2498Z" fill="#4A4A49"/>
<path d="M67.5615 40.0326C78.5096 40.0326 87.3848 31.1829 87.3848 20.2663C87.3848 9.34968 78.5096 0.5 67.5615 0.5C56.6134 0.5 47.7383 9.34968 47.7383 20.2663C47.7383 31.1829 56.6134 40.0326 67.5615 40.0326Z" fill="#D50D47"/>
<path d="M78.9507 42.9766H56.0697C50.3758 42.9766 45.8418 47.4976 45.8418 53.1751V135.5H64.2942V110.056H70.8316V135.5H89.2842V53.1751C89.1788 47.6027 84.6447 42.9766 78.9507 42.9766Z" fill="#D50D47"/>
<path d="M25.279 42.9766V67.6844H18.7416V42.9766H0.5V135.5H18.7416V110.056H25.279V135.5H43.3097V42.9766H25.279Z" fill="#4A4A49"/>
</svg>
