<svg width="27" height="30" viewBox="0 0 27 30" fill="none" xmlns="http://www.w3.org/2000/svg">
<g clip-path="url(#clip0_1720_2330)">
<path d="M13.3813 8.2622C9.65478 8.2622 6.64892 11.2681 6.64892 14.9946C6.64892 18.7212 9.65478 21.727 13.3813 21.727C17.1079 21.727 20.1138 18.7212 20.1138 14.9946C20.1138 11.2681 17.1079 8.2622 13.3813 8.2622ZM13.3813 19.3716C10.9731 19.3716 9.00439 17.4087 9.00439 14.9946C9.00439 12.5806 10.9673 10.6177 13.3813 10.6177C15.7954 10.6177 17.7583 12.5806 17.7583 14.9946C17.7583 17.4087 15.7895 19.3716 13.3813 19.3716ZM21.9595 7.98681C21.9595 8.85986 21.2563 9.55713 20.3891 9.55713C19.5161 9.55713 18.8188 8.854 18.8188 7.98681C18.8188 7.11963 19.522 6.4165 20.3891 6.4165C21.2563 6.4165 21.9595 7.11963 21.9595 7.98681ZM26.4184 9.58056C26.3188 7.47705 25.8384 5.61377 24.2973 4.07861C22.7622 2.54346 20.8989 2.06299 18.7954 1.95752C16.6274 1.83447 10.1294 1.83447 7.96142 1.95752C5.86377 2.05713 4.00049 2.5376 2.45947 4.07275C0.918457 5.60791 0.443848 7.47119 0.338379 9.5747C0.215332 11.7427 0.215332 18.2407 0.338379 20.4087C0.437988 22.5122 0.918457 24.3755 2.45947 25.9106C4.00049 27.4458 5.85791 27.9263 7.96142 28.0317C10.1294 28.1548 16.6274 28.1548 18.7954 28.0317C20.8989 27.9321 22.7622 27.4517 24.2973 25.9106C25.8325 24.3755 26.313 22.5122 26.4184 20.4087C26.5415 18.2407 26.5415 11.7485 26.4184 9.58056ZM23.6177 22.7349C23.1606 23.8833 22.2759 24.7681 21.1216 25.2309C19.3931 25.9165 15.2915 25.7583 13.3813 25.7583C11.4712 25.7583 7.36376 25.9106 5.64111 25.2309C4.49267 24.7739 3.60791 23.8892 3.14502 22.7349C2.45947 21.0063 2.61767 16.9048 2.61767 14.9946C2.61767 13.0845 2.46533 8.97705 3.14502 7.25439C3.60205 6.10596 4.48681 5.22119 5.64111 4.7583C7.36962 4.07275 11.4712 4.23096 13.3813 4.23096C15.2915 4.23096 19.3989 4.07861 21.1216 4.7583C22.27 5.21533 23.1548 6.1001 23.6177 7.25439C24.3032 8.98291 24.145 13.0845 24.145 14.9946C24.145 16.9048 24.3032 21.0122 23.6177 22.7349Z" fill="white"/>
</g>
<defs>
<clipPath id="clip0_1720_2330">
<rect width="26.25" height="30" fill="white" transform="translate(0.25)"/>
</clipPath>
</defs>
</svg>
