<svg width="95" height="25" viewBox="0 0 95 25" fill="none" xmlns="http://www.w3.org/2000/svg">
<path d="M8.79259 19.5156C2.92209 19.5156 0 15.6733 0 9.77135C0 3.67467 3.09022 0 9.12987 0C11.4615 0 13.3434 0.557072 14.7765 1.72642C16.1247 2.92388 16.8833 4.56599 17.0798 6.62565H14.7198C13.8771 6.62565 13.2593 6.2362 12.8936 5.4844C12.2474 4.12033 10.9834 3.42474 9.12886 3.42474C5.50487 3.42474 3.90354 5.95817 3.90354 9.77235C3.90354 13.4751 5.44815 16.0919 9.01643 16.0919C11.4605 16.0919 12.8653 14.7559 13.2866 12.6681H17.0788C16.7151 17.0374 13.6249 19.5156 8.79259 19.5156Z" fill="#51B496"/>
<path d="M22.6983 2.11588V19.2366H18.9619V0.306152H20.9005C21.884 0.306152 22.6983 1.14126 22.6983 2.11588Z" fill="#51B496"/>
<path d="M58.9356 23.1622C58.9356 24.3867 58.3178 25 57.0821 25H55.2002V10.9126C55.3967 6.51424 57.6999 4.34216 62.1666 4.34216C66.7741 4.34216 69.0773 6.81938 69.0773 11.7748C69.0773 16.7855 67.1104 19.3751 63.1501 19.5136C61.2966 19.5136 59.8917 18.7618 58.9366 17.2311V23.1622H58.9356ZM62.1099 16.2023C64.1326 16.2023 65.1718 14.782 65.2558 11.9424C65.2558 8.96335 64.1883 7.48787 62.0532 7.48787C59.9181 7.48787 58.9072 8.96335 58.9346 11.9424C59.048 14.783 60.0872 16.2023 62.1099 16.2023Z" fill="#51B496"/>
<path d="M77.4486 19.5708C72.9535 19.4313 70.707 16.8427 70.707 11.832C70.707 6.82139 72.9829 4.31506 77.5053 4.28796C82.2252 4.28796 84.4444 7.15563 84.1628 12.9181H74.5559C74.6967 15.1735 75.6791 16.3147 77.5053 16.3147C78.3764 16.3147 79.1907 15.9524 79.921 15.2568C80.2583 14.8944 80.6796 14.7278 81.185 14.7278H83.938C83.1226 17.8444 81.101 19.5708 77.4486 19.5708ZM74.6116 10.2722H80.2015C79.9767 8.32297 79.0499 7.32125 77.4486 7.32125C75.8473 7.32125 74.8922 8.32398 74.6116 10.2722Z" fill="#51B496"/>
<path d="M85.9043 11.6363C86.0167 6.87557 88.5732 4.50977 93.5453 4.50977H94.079V8.35206H92.815C90.7366 8.35206 89.6964 9.4381 89.6964 11.5811V19.2365H85.9043V11.6363V11.6363Z" fill="#51B496"/>
<path d="M37.6276 11.9645H38.2049C38.211 6.82841 35.9351 4.28796 31.435 4.28796C26.9399 4.28796 24.6924 6.82139 24.6924 11.9434C24.6924 17.0103 26.9399 19.5718 31.435 19.5718C33.8354 19.5718 35.6018 18.8411 36.7281 17.3887V12.8568C36.7271 12.364 37.1302 11.9645 37.6276 11.9645ZM31.4066 16.2585C29.4964 16.2585 28.5129 14.8111 28.4845 11.9434C28.4845 9.02057 29.468 7.54508 31.4339 7.54508C33.3442 7.54508 34.2993 8.96436 34.2993 11.832C34.272 14.7549 33.3168 16.2585 31.4066 16.2585Z" fill="#51B496"/>
<path d="M37.7906 15.1835C38.0549 15.1835 38.2686 15.3953 38.2686 15.6572C38.2686 15.9192 38.0549 16.131 37.7906 16.131C37.5262 16.131 37.3125 15.9192 37.3125 15.6572C37.3125 15.3963 37.5262 15.1835 37.7906 15.1835Z" fill="#51B496"/>
<path d="M46.6322 4.28699C42.1311 4.28699 39.8836 6.82744 39.8897 11.9635H40.3546C40.8519 11.9635 41.255 12.363 41.255 12.8559V17.2512C42.3671 18.7929 44.1588 19.5708 46.6322 19.5708C51.1273 19.5708 53.4022 17.0093 53.4022 11.9425C53.4022 6.82041 51.1273 4.28699 46.6322 4.28699ZM46.6039 16.2585C44.6936 16.2585 43.7102 14.8111 43.6828 11.9435C43.6828 9.0206 44.6663 7.54511 46.6322 7.54511C48.5425 7.54511 49.4976 8.96439 49.4976 11.8321C49.4703 14.7549 48.5151 16.2585 46.6039 16.2585Z" fill="#51B496"/>
</svg>
