<svg width="76" height="138" viewBox="0 0 76 138" fill="none" xmlns="http://www.w3.org/2000/svg">
<path d="M0.603566 137.892C1.16803 137.926 1.73239 137.995 2.29686 137.995C25.54 138 48.7833 138 72.0264 138C74.5992 138 75.1991 137.408 75.1991 134.837C75.2026 91.1284 75.2026 47.4215 75.1991 3.71401C75.1991 1.11661 74.5641 0.502812 71.8823 0.502812C48.6955 0.498477 25.505 0.498595 2.31877 0.507147C1.74551 0.507147 1.16804 0.572053 0.594779 0.61095C0.559749 0.749197 0.524719 0.887443 0.494141 1.02581C1.23364 1.37154 1.95991 1.76051 2.71699 2.0588C16.4782 7.46976 30.2438 12.8678 44.0095 18.2702C46.3418 19.1864 46.8268 19.8952 46.8268 22.4235C46.8315 53.7574 46.8315 85.0959 46.8268 116.429C46.8268 118.971 46.3371 119.667 43.8431 120.63C30.095 125.929 16.347 131.232 2.60323 136.539C1.88563 136.816 1.19861 137.158 0.494141 137.468C0.533506 137.611 0.568535 137.754 0.603566 137.892Z" fill="#BC192D"/>
</svg>
