<svg width="85" height="26" viewBox="0 0 85 26" fill="none" xmlns="http://www.w3.org/2000/svg">
<g clip-path="url(#clip0_1720_2308)">
<path d="M19.5274 10.1096H16.3819V8.01138C16.3819 5.10987 13.6848 2.75106 10.3672 2.75106C7.04965 2.75106 4.35258 5.10987 4.35258 8.01138V10.1096H1.20703V8.01138C1.20703 3.59464 5.31713 0 10.3672 0C15.4173 0 19.5274 3.59464 19.5274 8.01138V10.1096Z" fill="white"/>
<path d="M10.3675 25.5653C4.64154 25.5653 0 21.5059 0 16.4981V11.0067C0 10.4882 0.482277 10.0664 1.07514 10.0664H19.6597C20.2526 10.0664 20.7348 10.4882 20.7348 11.0067V16.4981C20.7348 21.5059 16.0933 25.5653 10.3675 25.5653Z" fill="white"/>
<path d="M9.44604 20.8967L4.57715 16.9044L6.65371 15.201L9.44604 17.49L15.0552 12.8906L17.1317 14.5939L9.44604 20.8967Z" fill="white"/>
<path d="M29.7747 10.0374C29.3939 9.91112 29.0528 9.77143 28.7488 9.6183C28.4447 9.46517 28.1866 9.28515 27.9746 9.07293C27.7627 8.86337 27.5968 8.61083 27.477 8.31531C27.3603 8.01979 27.3019 7.66785 27.3019 7.2568C27.3019 6.75709 27.4002 6.31649 27.5968 5.93231C27.7934 5.55082 28.0699 5.22843 28.4293 4.96784C28.7887 4.70724 29.2187 4.51112 29.7256 4.37947C30.2293 4.24783 30.7977 4.18066 31.4243 4.18066C31.9957 4.18066 32.5302 4.22365 33.0309 4.3123C33.5286 4.40096 34.0538 4.52724 34.6037 4.69381C34.5361 5.26336 34.3579 5.82217 34.0661 6.37023C33.8971 6.31112 33.7282 6.25202 33.5531 6.19291C33.378 6.13381 33.1937 6.08545 32.9971 6.04515C32.8005 6.00485 32.5794 5.9753 32.3336 5.94843C32.0879 5.92425 31.8053 5.91082 31.4919 5.91082C31.3015 5.91082 31.1079 5.92694 30.9113 5.95381C30.7147 5.98336 30.5396 6.03709 30.3829 6.115C30.2263 6.19291 30.0973 6.30843 29.9959 6.46157C29.8946 6.6147 29.8454 6.81351 29.8454 7.05799C29.8454 7.25411 29.8853 7.418 29.9622 7.54964C30.0389 7.68128 30.1464 7.79412 30.2816 7.88815C30.4168 7.98218 30.5673 8.06009 30.7363 8.12456C30.9052 8.18904 31.0742 8.25083 31.24 8.30725L32.2507 8.64576C32.6776 8.79352 33.0647 8.94397 33.4117 9.10252C33.7589 9.25834 34.0538 9.45441 34.2934 9.68277C34.533 9.91381 34.7235 10.1933 34.8555 10.521C34.9907 10.8487 35.0583 11.2544 35.0583 11.7353C35.0583 12.2351 34.9538 12.6918 34.748 13.1028C34.5392 13.5138 34.2412 13.8685 33.848 14.1613C33.4548 14.4541 32.9695 14.6852 32.3919 14.8517C31.8145 15.0183 31.1509 15.1016 30.3984 15.1016C30.0297 15.1016 29.698 15.0909 29.4061 15.072C29.1143 15.0533 28.8379 15.021 28.5737 14.9754C28.3095 14.9323 28.0483 14.876 27.7904 14.8061C27.5323 14.739 27.262 14.653 26.9824 14.5562C27.0162 14.2715 27.0777 13.9759 27.1668 13.667C27.2558 13.358 27.3633 13.0464 27.4862 12.732C27.9562 12.8986 28.4017 13.0248 28.8163 13.1081C29.2311 13.1914 29.6734 13.2345 30.1464 13.2345C30.853 13.2345 31.409 13.1189 31.8114 12.8878C32.2138 12.6568 32.4165 12.3076 32.4165 11.8348C32.4165 11.5983 32.3674 11.4022 32.2721 11.2464C32.1769 11.0905 32.054 10.9562 31.9035 10.8487C31.753 10.7413 31.581 10.65 31.3905 10.5774C31.2001 10.5049 31.0034 10.4324 30.8008 10.3651L29.7747 10.0374Z" fill="white"/>
<path d="M36.8223 4.36035H43.6847C43.7523 4.65587 43.7861 4.95408 43.7861 5.25766C43.7861 5.58006 43.7523 5.88901 43.6847 6.18454H39.2767V8.47888H42.7755C42.8431 8.7932 42.8768 9.09681 42.8768 9.39231C42.8768 9.70664 42.8431 10.0156 42.7755 10.3192H39.2767V13.1132H43.8015C43.869 13.4088 43.9029 13.707 43.9029 14.0105C43.9029 14.3329 43.869 14.6419 43.8015 14.9374H36.8223V4.36035Z" fill="white"/>
<path d="M53.7453 12.9358C53.8896 13.2097 54.0125 13.4919 54.1077 13.782C54.203 14.0721 54.2736 14.3623 54.3166 14.6579C53.7329 14.8432 53.2077 14.9668 52.7439 15.0259C52.2769 15.085 51.7762 15.1146 51.2387 15.1146C50.2864 15.1146 49.4509 14.9803 48.732 14.7089C48.0132 14.4402 47.4111 14.0614 46.9228 13.5752C46.4343 13.0889 46.0687 12.5139 45.82 11.8477C45.5742 11.1814 45.4482 10.456 45.4482 9.6715C45.4482 8.88705 45.5772 8.15899 45.8353 7.48735C46.0934 6.81571 46.465 6.2354 46.9534 5.74376C47.4419 5.25211 48.0409 4.87062 48.7535 4.59659C49.4662 4.32256 50.2772 4.18555 51.1834 4.18555C51.7209 4.18555 52.2185 4.2151 52.6732 4.2742C53.1279 4.33331 53.6193 4.45689 54.1446 4.64226C54.1231 4.93778 54.0555 5.22256 53.9419 5.50196C53.8282 5.78137 53.7053 6.06346 53.5702 6.34824C53.177 6.23003 52.8298 6.14674 52.5288 6.09838C52.2247 6.05002 51.8684 6.02585 51.4537 6.02585C50.3785 6.02585 49.5492 6.33212 48.9716 6.94466C48.3942 7.5572 48.1054 8.46795 48.1054 9.67419C48.1054 12.068 49.2666 13.2635 51.5888 13.2635C52.0036 13.2635 52.3691 13.2393 52.6824 13.1909C52.9988 13.1372 53.3521 13.0539 53.7453 12.9358Z" fill="white"/>
<path d="M56.083 4.36063C56.295 4.33108 56.5039 4.31227 56.7067 4.30153C56.9093 4.29078 57.1152 4.28809 57.3302 4.28809C57.5206 4.28809 57.7173 4.29347 57.92 4.30153C58.1227 4.31227 58.3286 4.33108 58.5435 4.36063V9.84661C58.5435 10.4458 58.5682 10.9562 58.6204 11.3834C58.6726 11.8105 58.7709 12.1625 58.9245 12.4419C59.075 12.7212 59.29 12.9281 59.5635 13.0598C59.8369 13.1914 60.1932 13.2586 60.6324 13.2586C61.0687 13.2586 61.4219 13.1914 61.6922 13.0598C61.9626 12.9281 62.1714 12.7212 62.3219 12.4419C62.4725 12.1625 62.5739 11.8105 62.6261 11.3834C62.6752 10.9562 62.7028 10.4431 62.7028 9.84661V4.36063C62.9271 4.33108 63.1391 4.31227 63.3417 4.30153C63.5445 4.29078 63.7412 4.28809 63.9316 4.28809C64.1343 4.28809 64.337 4.29347 64.5459 4.30153C64.7518 4.31227 64.9637 4.33108 65.1756 4.36063V10.3033C65.1756 11.0206 65.1081 11.6735 64.973 12.2672C64.8377 12.861 64.5982 13.3687 64.2511 13.7905C63.9039 14.2123 63.437 14.5374 62.8565 14.7684C62.2728 14.9994 61.5325 15.115 60.6355 15.115C59.7385 15.115 58.9982 14.9994 58.4145 14.7684C57.8309 14.5374 57.367 14.2123 57.0199 13.7905C56.6728 13.3687 56.4302 12.861 56.298 12.2672C56.1629 11.6735 56.0954 11.018 56.0954 10.3033V4.36063H56.083Z" fill="white"/>
<path d="M67.5529 4.3609C68.0475 4.31255 68.5082 4.26956 68.9414 4.23463C69.3744 4.19971 69.8537 4.18359 70.3789 4.18359C70.9964 4.18359 71.6046 4.23195 72.2036 4.33135C72.8026 4.43076 73.3433 4.6027 73.8255 4.85256C74.3078 5.10241 74.698 5.44091 74.9959 5.86808C75.2938 6.29524 75.4413 6.83793 75.4413 7.49346C75.4413 7.8857 75.386 8.23227 75.2724 8.53048C75.1587 8.82869 75.0175 9.09198 74.8423 9.31764C74.6672 9.54331 74.4798 9.73678 74.2801 9.89798C74.0775 10.0592 73.887 10.1908 73.7088 10.2875L73.4231 10.4487L76.366 14.9218C76.1417 14.9406 75.9051 14.9622 75.6594 14.981C75.4137 14.9997 75.1618 15.0105 74.9037 15.0105C74.4768 15.0105 74.0559 14.981 73.6412 14.9218L70.4803 10.0081L70.8828 9.83074C71.0394 9.76359 71.2299 9.67492 71.4541 9.56482C71.6784 9.45733 71.8934 9.32302 72.1022 9.15913C72.3081 8.99793 72.4862 8.80182 72.6306 8.57078C72.7749 8.33973 72.8487 8.06839 72.8487 7.75406C72.8487 7.13614 72.6459 6.68211 72.2436 6.39465C71.8412 6.1045 71.3189 5.95942 70.68 5.95942C70.4342 5.95942 70.21 5.97285 70.0073 6.00241V14.9379C69.8045 14.9568 69.6049 14.9756 69.4021 14.9891C69.1993 15.0051 69.0028 15.0105 68.8123 15.0105C68.6219 15.0105 68.4191 15.0051 68.2072 14.9971C67.9952 14.9864 67.774 14.9675 67.5498 14.9379V4.3609H67.5529Z" fill="white"/>
<path d="M77.7109 4.36035H84.5734C84.641 4.65587 84.6747 4.95408 84.6747 5.25766C84.6747 5.58006 84.641 5.88901 84.5734 6.18454H80.1653V8.47888H83.6641C83.7317 8.7932 83.7655 9.09681 83.7655 9.39231C83.7655 9.70664 83.7317 10.0156 83.6641 10.3192H80.1653V13.1132H84.6901C84.7577 13.4088 84.7915 13.707 84.7915 14.0105C84.7915 14.3329 84.7577 14.6419 84.6901 14.9374H77.7109V4.36035Z" fill="white"/>
<path d="M27.4932 17.9837C27.7358 17.9649 27.9815 17.9515 28.2273 17.938C28.4761 17.9273 28.725 17.9219 28.9768 17.9219C29.241 17.9219 29.5083 17.9461 29.7786 17.9917C30.0489 18.0374 30.2947 18.1234 30.5128 18.2523C30.7309 18.3787 30.909 18.5559 31.0472 18.7816C31.1855 19.0072 31.2531 19.3001 31.2531 19.6601C31.2531 20.0202 31.1855 20.3103 31.0472 20.5333C30.909 20.7562 30.7339 20.9336 30.5189 21.0625C30.3039 21.1915 30.0612 21.2801 29.797 21.3258C29.5297 21.3714 29.2686 21.3957 29.0106 21.3957C28.9431 21.3957 28.8785 21.3957 28.8171 21.393C28.7556 21.3903 28.7003 21.3876 28.6481 21.3822V22.9781C28.5468 22.9915 28.4516 23.0022 28.3563 23.0049C28.2611 23.0103 28.169 23.0129 28.0798 23.0129C27.9969 23.0129 27.9048 23.0103 27.8034 23.0049C27.702 22.9995 27.6007 22.9915 27.4962 22.9781V17.9837H27.4932ZM28.645 20.5413C28.7095 20.5521 28.768 20.5548 28.8232 20.5548C28.8785 20.5548 28.9461 20.5548 29.026 20.5548C29.158 20.5548 29.2871 20.5386 29.413 20.5091C29.5389 20.4796 29.6526 20.4285 29.7479 20.3613C29.8462 20.2915 29.9229 20.2001 29.9813 20.0873C30.0397 19.9744 30.0674 19.8348 30.0674 19.6682C30.0674 19.4989 30.0397 19.3538 29.9813 19.2357C29.9229 19.1174 29.8462 19.0234 29.7479 18.9535C29.6495 18.881 29.5389 18.8327 29.413 18.8004C29.2871 18.7709 29.158 18.7548 29.026 18.7548C28.9676 18.7548 28.9154 18.7548 28.8632 18.7575C28.814 18.7602 28.7403 18.7655 28.645 18.7735V20.5413Z" fill="white"/>
<path d="M33.7345 18.0058C33.8451 17.9925 33.9495 17.9817 34.0509 17.9736C34.1522 17.9656 34.2628 17.9629 34.3827 17.9629C34.4871 17.9629 34.5915 17.9656 34.6898 17.9736C34.7912 17.9817 34.9018 17.9898 35.0216 18.0058L36.8002 22.976C36.5852 23.0029 36.3732 23.0163 36.1673 23.0163C35.9677 23.0163 35.7711 23.0029 35.5837 22.976L35.2673 21.9794H33.3874L33.0618 22.976C32.8713 23.0029 32.6901 23.0163 32.515 23.0163C32.3215 23.0163 32.1279 23.0029 31.9375 22.976L33.7345 18.0058ZM35.0001 21.1438L34.3427 19.0563L33.6547 21.1438H35.0001Z" fill="white"/>
<path d="M39.0554 21.2005L37.2861 18.0062C37.5073 17.9793 37.7285 17.9658 37.9496 17.9658C38.1493 17.9658 38.349 17.9793 38.5517 18.0062L39.6729 20.2602L40.7788 18.0062C40.9723 17.9793 41.175 17.9658 41.3809 17.9658C41.5713 17.9658 41.774 17.9793 41.9891 18.0062L40.2197 21.2005V22.9844C40.1152 22.9978 40.0138 23.0086 39.9187 23.0113C39.8234 23.0166 39.7282 23.0193 39.633 23.0193C39.5439 23.0193 39.4486 23.0166 39.3535 23.0113C39.2552 23.0059 39.1568 22.9978 39.0585 22.9844V21.2005H39.0554Z" fill="white"/>
<path d="M43.5677 18.0062C43.7797 17.9793 43.9825 17.9658 44.176 17.9658C44.3818 17.9658 44.5845 17.9793 44.7842 18.0062L46.0897 20.8539L47.4351 18.0062C47.5979 17.9793 47.7793 17.9658 47.9819 17.9658C48.1816 17.9658 48.3751 17.9793 48.5595 18.0062L48.8267 22.9763C48.6271 23.0032 48.4366 23.0166 48.2584 23.0166C48.0803 23.0166 47.9021 23.0032 47.7301 22.9763L47.5887 19.6019L46.4338 21.9393C46.36 21.9473 46.2833 21.9554 46.2033 21.9635C46.1235 21.9715 46.0437 21.9742 45.9668 21.9742C45.8993 21.9742 45.8286 21.9715 45.761 21.9661C45.6934 21.9608 45.6228 21.9527 45.5491 21.9393L44.4739 19.5536L44.3633 22.9763C44.1944 23.0032 44.0316 23.0166 43.8719 23.0166C43.7029 23.0166 43.5278 23.0032 43.3496 22.9763L43.5677 18.0062Z" fill="white"/>
<path d="M50.6572 18.0059H53.8827C53.9134 18.1429 53.9288 18.2852 53.9288 18.4276C53.9288 18.5807 53.9134 18.7258 53.8827 18.8629H51.8123V19.9402H53.4557C53.4864 20.0879 53.5017 20.2303 53.5017 20.3673C53.5017 20.515 53.4864 20.6602 53.4557 20.8026H51.8123V22.1163H53.938C53.9687 22.2533 53.9841 22.3956 53.9841 22.5381C53.9841 22.6912 53.9687 22.8363 53.938 22.9733H50.6572V18.0059Z" fill="white"/>
<path d="M55.6465 18.0062C55.8093 17.9793 55.966 17.9658 56.1134 17.9658C56.2701 17.9658 56.4359 17.9793 56.6049 18.0062L58.8012 21.1736V18.0062C58.9917 17.9793 59.1729 17.9658 59.348 17.9658C59.5108 17.9658 59.6706 17.9793 59.8211 18.0062V22.9763C59.6522 23.0032 59.4986 23.0166 59.3634 23.0166C59.216 23.0166 59.0562 23.0032 58.8811 22.9763L56.6663 19.8169V22.9763C56.4974 23.0032 56.3253 23.0166 56.1533 23.0166C55.9782 23.0166 55.8093 23.0032 55.6465 22.9763V18.0062Z" fill="white"/>
<path d="M62.8216 18.8629H61.4055C61.3747 18.7258 61.3594 18.5807 61.3594 18.4276C61.3594 18.2852 61.3747 18.1455 61.4055 18.0059H65.3957C65.4265 18.1429 65.4418 18.2852 65.4418 18.4276C65.4418 18.5807 65.4265 18.7258 65.3957 18.8629H63.9797V22.976C63.8844 22.9841 63.7892 22.9921 63.694 23.0002C63.5987 23.0083 63.5066 23.0109 63.4175 23.0109C63.3284 23.0109 63.2332 23.0083 63.1288 23.0029C63.0274 22.9975 62.9229 22.9894 62.8154 22.976V18.8629H62.8216Z" fill="white"/>
</g>
<defs>
<clipPath id="clip0_1720_2308">
<rect width="85" height="26" fill="white"/>
</clipPath>
</defs>
</svg>
