<svg width="86" height="28" viewBox="0 0 86 28" fill="none" xmlns="http://www.w3.org/2000/svg">
<path d="M21.2096 11.0395C21.2096 15.5486 17.1474 19.2048 12.1375 19.2048C7.12764 19.2048 3.06543 15.5486 3.06543 11.0395C3.06543 6.53025 7.12764 2.87402 12.1375 2.87402C17.1474 2.87402 21.2096 6.53025 21.2096 11.0395Z" fill="white"/>
<path d="M22.5285 18.1294L14.0479 25.0886C12.9554 25.9851 11.3196 25.9851 10.2271 25.0886L1.74656 18.1294C1.12184 17.616 0.762695 16.8743 0.762695 16.0975V3.83038C0.762695 2.48305 1.82502 1.33946 3.25254 1.15203L11.7331 0.0274612C12.0017 -0.00785164 12.2764 -0.00785164 12.5449 0.0274612L21.0255 1.15203C22.453 1.34218 23.5153 2.48305 23.5153 3.83038V16.0975C23.5123 16.8743 23.1531 17.616 22.5285 18.1294Z" fill="white"/>
<path d="M10.2124 16.5581L5.43196 12.5243C5.10601 12.2499 5.10601 11.7855 5.43196 11.5111L6.82326 10.3349C7.11902 10.085 7.58076 10.085 7.87653 10.3349L10.2094 12.3043C10.5052 12.5542 10.9669 12.5542 11.2627 12.3043L17.0181 7.45012C17.3138 7.20022 17.7756 7.20022 18.0713 7.45012L19.4626 8.62631C19.7885 8.90066 19.7885 9.36518 19.4626 9.63949L11.2687 16.5581C10.97 16.808 10.5082 16.808 10.2124 16.5581Z" fill="white"/>
<path d="M31.9446 9.85649C31.5703 9.72119 31.2353 9.57144 30.9365 9.40732C30.6377 9.2432 30.3842 9.05027 30.176 8.82278C29.9677 8.59817 29.8048 8.32749 29.6871 8.01074C29.5694 7.69399 29.515 7.31677 29.515 6.8762C29.515 6.3406 29.6117 5.86835 29.8048 5.45657C29.998 5.04768 30.2695 4.70214 30.6227 4.42281C30.9758 4.1435 31.3982 3.93329 31.8963 3.79219C32.3912 3.6511 32.9495 3.5791 33.5652 3.5791C34.1266 3.5791 34.6517 3.62518 35.1436 3.7202C35.6326 3.81523 36.1486 3.95057 36.6888 4.1291C36.6224 4.73957 36.4474 5.33851 36.1607 5.92594C35.9947 5.86259 35.8287 5.79924 35.6567 5.7359C35.4847 5.67254 35.3035 5.62071 35.1104 5.57752C34.9172 5.53432 34.6999 5.50265 34.4585 5.47385C34.2171 5.44794 33.9394 5.43354 33.6316 5.43354C33.4445 5.43354 33.2543 5.45082 33.0612 5.47961C32.8681 5.51129 32.6961 5.56888 32.5421 5.65238C32.3882 5.7359 32.2614 5.85971 32.1619 6.02384C32.0622 6.18799 32.014 6.40107 32.014 6.66311C32.014 6.87332 32.0532 7.04897 32.1286 7.19007C32.2041 7.33116 32.3098 7.45211 32.4425 7.55289C32.5753 7.65368 32.7232 7.73718 32.8892 7.8063C33.0551 7.8754 33.2212 7.94164 33.3841 8.00211L34.377 8.36492C34.7966 8.5233 35.1768 8.68456 35.5178 8.85445C35.8589 9.02147 36.1486 9.23164 36.384 9.47642C36.6194 9.72408 36.8065 10.0236 36.9363 10.3749C37.0691 10.7261 37.1355 11.1609 37.1355 11.6764C37.1355 12.212 37.0328 12.7016 36.8307 13.1421C36.6255 13.5827 36.3327 13.9628 35.9464 14.2767C35.5601 14.5906 35.0832 14.8381 34.5159 15.0167C33.9485 15.1952 33.2966 15.2845 32.5572 15.2845C32.195 15.2845 31.8691 15.273 31.5824 15.2528C31.2957 15.2327 31.024 15.1981 30.7645 15.1491C30.505 15.1031 30.2484 15.0426 29.9949 14.9678C29.7414 14.8958 29.4758 14.8036 29.2012 14.7C29.2344 14.3948 29.2947 14.078 29.3823 13.7468C29.4698 13.4157 29.5754 13.0816 29.6962 12.7447C30.1579 12.9233 30.5955 13.0586 31.0029 13.1478C31.4104 13.2372 31.8449 13.2832 32.3098 13.2832C33.0039 13.2832 33.5501 13.1594 33.9454 12.9117C34.3409 12.6641 34.54 12.2898 34.54 11.783C34.54 11.5295 34.4918 11.3194 34.3981 11.1524C34.3046 10.9853 34.1839 10.8414 34.0361 10.7261C33.8882 10.611 33.7191 10.513 33.532 10.4354C33.3449 10.3576 33.1518 10.2798 32.9525 10.2078L31.9446 9.85649Z" fill="white"/>
<path d="M38.8682 3.76953H45.6104C45.6768 4.08628 45.71 4.40592 45.71 4.7313C45.71 5.07685 45.6768 5.408 45.6104 5.72475H41.2795V8.18389H44.7171C44.7835 8.5208 44.8166 8.84618 44.8166 9.16293C44.8166 9.49983 44.7835 9.83095 44.7171 10.1564H41.2795V13.1511H45.725C45.7914 13.4679 45.8247 13.7875 45.8247 14.1129C45.8247 14.4584 45.7914 14.7896 45.725 15.1063H38.8682V3.76953Z" fill="white"/>
<path d="M55.4943 12.9637C55.6362 13.2574 55.7569 13.5597 55.8505 13.8708C55.944 14.1817 56.0134 14.4927 56.0557 14.8095C55.4823 15.0081 54.9662 15.1406 54.5105 15.2039C54.0518 15.2673 53.5599 15.2989 53.0317 15.2989C52.0961 15.2989 51.2752 15.155 50.569 14.8641C49.8628 14.5762 49.2713 14.1702 48.7914 13.649C48.3116 13.1278 47.9524 12.5116 47.708 11.7974C47.4665 11.0833 47.3428 10.3058 47.3428 9.46501C47.3428 8.62418 47.4696 7.84382 47.723 7.12394C47.9765 6.40405 48.3417 5.78206 48.8216 5.2551C49.3014 4.72815 49.89 4.31925 50.5901 4.02553C51.2903 3.73182 52.087 3.58496 52.9774 3.58496C53.5055 3.58496 53.9944 3.61664 54.4411 3.67998C54.8877 3.74333 55.3707 3.87579 55.8867 4.07448C55.8656 4.39123 55.7991 4.69647 55.6875 4.99594C55.5758 5.29542 55.4551 5.59777 55.3223 5.903C54.936 5.7763 54.595 5.68704 54.2992 5.6352C54.0004 5.58338 53.6504 5.55745 53.2429 5.55745C52.1866 5.55745 51.3718 5.88572 50.8044 6.54227C50.237 7.1988 49.9534 8.17497 49.9534 9.46791C49.9534 12.0336 51.0941 13.315 53.3757 13.315C53.7832 13.315 54.1423 13.2891 54.4501 13.2372C54.761 13.1767 55.108 13.0875 55.4943 12.9637Z" fill="white"/>
<path d="M57.791 3.76916C57.9992 3.73748 58.2044 3.71732 58.4037 3.7058C58.6028 3.69429 58.805 3.69141 59.0163 3.69141C59.2034 3.69141 59.3966 3.69716 59.5958 3.7058C59.7949 3.71732 59.9971 3.73748 60.2084 3.76916V9.64921C60.2084 10.2913 60.2325 10.8385 60.2839 11.2963C60.3351 11.7542 60.4317 12.1314 60.5826 12.4309C60.7305 12.7303 60.9417 12.952 61.2104 13.0931C61.479 13.2343 61.829 13.3063 62.2606 13.3063C62.6892 13.3063 63.0362 13.2343 63.3018 13.0931C63.5674 12.952 63.7726 12.7303 63.9205 12.4309C64.0684 12.1314 64.168 11.7542 64.2193 11.2963C64.2706 10.8385 64.2948 10.2884 64.2948 9.64921V3.76916C64.5151 3.73748 64.7233 3.71732 64.9225 3.7058C65.1217 3.69429 65.3149 3.69141 65.5019 3.69141C65.7012 3.69141 65.9003 3.69716 66.1055 3.7058C66.3078 3.71732 66.516 3.73748 66.7242 3.76916V10.1388C66.7242 10.9076 66.6578 11.6073 66.5251 12.2437C66.3923 12.88 66.1569 13.4243 65.8158 13.8764C65.4748 14.3285 65.0161 14.6769 64.4456 14.9246C63.8722 15.1722 63.1449 15.296 62.2636 15.296C61.3824 15.296 60.6551 15.1722 60.0816 14.9246C59.5082 14.6769 59.0525 14.3285 58.7115 13.8764C58.3704 13.4243 58.132 12.88 58.0022 12.2437C57.8695 11.6073 57.8031 10.9047 57.8031 10.1388V3.76916H57.791Z" fill="white"/>
<path d="M69.0597 3.76915C69.5455 3.71732 69.9982 3.67125 70.4238 3.63381C70.8493 3.59638 71.3201 3.5791 71.8362 3.5791C72.4428 3.5791 73.0404 3.63094 73.6289 3.73747C74.2174 3.84402 74.7486 4.02831 75.2224 4.29611C75.6962 4.56391 76.0795 4.92673 76.3722 5.38459C76.665 5.84243 76.8099 6.4241 76.8099 7.12671C76.8099 7.54713 76.7555 7.9186 76.6439 8.23822C76.5322 8.55785 76.3933 8.84005 76.2213 9.08192C76.0493 9.32381 75.8652 9.53119 75.6691 9.70389C75.4698 9.87667 75.2828 10.0178 75.1077 10.1214L74.8271 10.2942L77.7183 15.0886C77.4979 15.1089 77.2656 15.1319 77.0241 15.1521C76.7827 15.1722 76.5352 15.1838 76.2817 15.1838C75.8622 15.1838 75.4487 15.1521 75.0413 15.0886L71.9358 9.82194L72.3311 9.6319C72.4851 9.55991 72.6722 9.46489 72.8925 9.34684C73.1128 9.23168 73.3241 9.08771 73.5293 8.91204C73.7315 8.73927 73.9065 8.52906 74.0484 8.28141C74.1902 8.03378 74.2627 7.74294 74.2627 7.40603C74.2627 6.74373 74.0635 6.25708 73.6681 5.9461C73.2728 5.63511 72.7597 5.47961 72.132 5.47961C71.8906 5.47961 71.6702 5.494 71.471 5.52568V15.0973C71.2718 15.1175 71.0757 15.1376 70.8765 15.1521C70.6773 15.1693 70.4842 15.1751 70.297 15.1751C70.1099 15.1751 69.9107 15.1693 69.7025 15.1606C69.4943 15.1492 69.277 15.129 69.0566 15.0973V3.76915H69.0597Z" fill="white"/>
<path d="M79.04 3.76953H85.7823C85.8486 4.08628 85.8818 4.40592 85.8818 4.7313C85.8818 5.07685 85.8486 5.408 85.7823 5.72475H81.4514V8.18389H84.8889C84.9553 8.5208 84.9885 8.84618 84.9885 9.16293C84.9885 9.49983 84.9553 9.83095 84.8889 10.1564H81.4514V13.1511H85.8969C85.9633 13.4679 85.9965 13.7875 85.9965 14.1129C85.9965 14.4584 85.9633 14.7896 85.8969 15.1063H79.04V3.76953Z" fill="white"/>
<path d="M30.5599 21.508C30.3909 21.4445 30.237 21.3783 30.1011 21.3035C29.9654 21.2286 29.8507 21.1422 29.7541 21.0385C29.6576 20.9349 29.5851 20.811 29.5308 20.6699C29.4794 20.526 29.4523 20.3532 29.4523 20.1546C29.4523 19.9098 29.4975 19.6967 29.5851 19.5095C29.6726 19.3223 29.7963 19.1669 29.9563 19.0402C30.1163 18.9134 30.3094 18.8184 30.5357 18.7522C30.7621 18.6888 31.0157 18.6543 31.2963 18.6543C31.5528 18.6543 31.7913 18.6744 32.0146 18.7176C32.2379 18.7608 32.4733 18.8242 32.7177 18.9048C32.6876 19.1812 32.6061 19.4548 32.4763 19.7226C32.4009 19.6938 32.3254 19.665 32.247 19.6362C32.1685 19.6074 32.087 19.5843 31.9995 19.5642C31.912 19.5441 31.8124 19.5297 31.7037 19.5181C31.592 19.5066 31.4684 19.5009 31.3265 19.5009C31.242 19.5009 31.1545 19.5095 31.0669 19.521C30.9794 19.5354 30.9009 19.5613 30.8315 19.5988C30.7621 19.6362 30.7048 19.6938 30.6595 19.7687C30.6142 19.8436 30.5931 19.9386 30.5931 20.0595C30.5931 20.1546 30.6112 20.2351 30.6444 20.2985C30.6806 20.3618 30.7259 20.4195 30.7863 20.4626C30.8466 20.5087 30.913 20.5461 30.9884 20.5778C31.0639 20.6095 31.1393 20.6383 31.2148 20.667L31.6675 20.8313C31.8577 20.9032 32.0297 20.9781 32.1866 21.0529C32.3405 21.1307 32.4733 21.2228 32.5819 21.3352C32.6906 21.4474 32.7751 21.5828 32.8325 21.7441C32.8928 21.9053 32.923 22.1011 32.923 22.3372C32.923 22.582 32.8777 22.8037 32.7842 23.0053C32.6906 23.2068 32.5578 23.3796 32.3828 23.5207C32.2077 23.6647 31.9905 23.777 31.7309 23.8576C31.4714 23.9383 31.1756 23.9785 30.8406 23.9785C30.6746 23.9785 30.5267 23.9729 30.3969 23.9642C30.2672 23.9555 30.1434 23.9383 30.0257 23.9181C29.908 23.898 29.7903 23.8692 29.6757 23.8346C29.5609 23.8001 29.4403 23.7597 29.3135 23.7136C29.3285 23.5754 29.3558 23.4315 29.395 23.2788C29.4342 23.1291 29.4825 22.9765 29.5368 22.8239C29.7481 22.9045 29.9442 22.9649 30.1314 23.0082C30.3154 23.0485 30.5146 23.0686 30.7259 23.0686C31.0428 23.0686 31.2902 23.0139 31.4714 22.8987C31.6524 22.7865 31.7429 22.6166 31.7429 22.3862C31.7429 22.271 31.7218 22.176 31.6795 22.0982C31.6373 22.0204 31.583 21.9571 31.5136 21.9053C31.4472 21.8534 31.3687 21.8074 31.2842 21.7729C31.1997 21.7383 31.1122 21.7038 31.0217 21.6692L30.5599 21.508Z" fill="white"/>
<path d="M34.5071 21.507C34.3381 21.4437 34.1842 21.3774 34.0484 21.3026C33.9127 21.2277 33.7979 21.1413 33.7014 21.0377C33.6047 20.934 33.5324 20.8101 33.478 20.669C33.4267 20.5251 33.3996 20.3523 33.3996 20.1536C33.3996 19.9088 33.4448 19.6957 33.5324 19.5086C33.6199 19.3214 33.7436 19.1659 33.9035 19.0392C34.0636 18.9125 34.2567 18.8175 34.483 18.7512C34.7094 18.6879 34.9629 18.6533 35.2435 18.6533C35.5001 18.6533 35.7385 18.6736 35.9618 18.7167C36.1852 18.7599 36.4206 18.8232 36.665 18.9039C36.6349 19.1804 36.5534 19.4538 36.4236 19.7217C36.3481 19.6928 36.2727 19.6641 36.1942 19.6353C36.1158 19.6065 36.0343 19.5835 35.9468 19.5633C35.8592 19.5432 35.7596 19.5287 35.651 19.5173C35.5393 19.5057 35.4156 19.4999 35.2738 19.4999C35.1893 19.4999 35.1017 19.5086 35.0142 19.5201C34.9267 19.5345 34.8482 19.5604 34.7788 19.5978C34.7094 19.6353 34.652 19.6928 34.6068 19.7677C34.5615 19.8426 34.5404 19.9376 34.5404 20.0586C34.5404 20.1536 34.5585 20.2342 34.5917 20.2976C34.6279 20.361 34.6732 20.4185 34.7335 20.4618C34.7938 20.5078 34.8603 20.5452 34.9357 20.5769C35.0111 20.6085 35.0866 20.6373 35.1621 20.6662L35.6147 20.8303C35.8049 20.9023 35.9769 20.9771 36.1339 21.052C36.2878 21.1298 36.4206 21.2219 36.5292 21.3342C36.6379 21.4465 36.7224 21.5818 36.7797 21.7432C36.84 21.9044 36.8703 22.1002 36.8703 22.3363C36.8703 22.5811 36.825 22.8028 36.7314 23.0043C36.6379 23.2059 36.5051 23.3787 36.3301 23.5198C36.1549 23.6638 35.9377 23.7761 35.6781 23.8567C35.4186 23.9374 35.1229 23.9777 34.7878 23.9777C34.6218 23.9777 34.474 23.9719 34.3442 23.9633C34.2145 23.9546 34.0907 23.9374 33.9729 23.9172C33.8553 23.897 33.7376 23.8683 33.6229 23.8337C33.5082 23.7991 33.3875 23.7588 33.2607 23.7127C33.2758 23.5745 33.3029 23.4306 33.3422 23.2779C33.3815 23.1282 33.4297 22.9756 33.4841 22.823C33.6954 22.9035 33.8915 22.9641 34.0786 23.0072C34.2627 23.0476 34.4619 23.0677 34.6732 23.0677C34.9901 23.0677 35.2375 23.013 35.4186 22.8978C35.5997 22.7855 35.6902 22.6156 35.6902 22.3853C35.6902 22.2701 35.6691 22.1751 35.6268 22.0973C35.5846 22.0196 35.5303 21.9562 35.4608 21.9044C35.3944 21.8525 35.316 21.8065 35.2315 21.7719C35.147 21.7374 35.0595 21.7028 34.9689 21.6683L34.5071 21.507Z" fill="white"/>
<path d="M37.6582 18.7375C37.8423 18.7087 38.0204 18.6943 38.1924 18.6943C38.3675 18.6943 38.5515 18.7087 38.7416 18.7375V22.9935H40.6158C40.631 23.0741 40.64 23.1518 40.646 23.2267C40.6521 23.3016 40.6521 23.3707 40.6521 23.4398C40.6521 23.5176 40.6491 23.5924 40.646 23.6644C40.64 23.7393 40.631 23.8171 40.6158 23.8976H37.6612V18.7375H37.6582Z" fill="white"/>
<path d="M43.0205 18.7373H46.0898C46.1201 18.8813 46.1351 19.0281 46.1351 19.175C46.1351 19.3333 46.1201 19.4831 46.0898 19.6271H44.1191V20.7473H45.6824C45.7126 20.8998 45.7276 21.0496 45.7276 21.1935C45.7276 21.3462 45.7126 21.4987 45.6824 21.6456H44.1191V23.0106H46.1412C46.1713 23.1545 46.1865 23.3014 46.1865 23.4483C46.1865 23.6066 46.1713 23.7564 46.1412 23.9003H43.0205V18.7373Z" fill="white"/>
<path d="M47.0137 18.7375C47.1706 18.7087 47.3155 18.6943 47.4573 18.6943C47.6082 18.6943 47.7621 18.7087 47.9251 18.7375L50.0166 22.0231V18.7375C50.1976 18.7087 50.3696 18.6943 50.5357 18.6943C50.6896 18.6943 50.8405 18.7087 50.9854 18.7375V23.8976C50.8254 23.9265 50.6805 23.9408 50.5477 23.9408C50.4059 23.9408 50.255 23.9265 50.089 23.8976L47.9825 20.6178V23.8976C47.8225 23.9265 47.6596 23.9408 47.4935 23.9408C47.3275 23.9408 47.1676 23.9265 47.0137 23.8976V18.7375Z" fill="white"/>
<path d="M55.6113 22.9207C55.6778 23.056 55.7291 23.1914 55.7744 23.3325C55.8166 23.4736 55.8468 23.6147 55.8679 23.7586C55.6083 23.8509 55.3729 23.9084 55.1648 23.9372C54.9565 23.966 54.7332 23.9804 54.4917 23.9804C54.0662 23.9804 53.6919 23.9142 53.3721 23.7817C53.0521 23.6493 52.7805 23.465 52.5632 23.2288C52.3459 22.9927 52.1799 22.7105 52.0712 22.3851C51.9596 22.0598 51.9053 21.7055 51.9053 21.3225C51.9053 20.9396 51.9626 20.5854 52.0773 20.2571C52.192 19.9289 52.358 19.6467 52.5783 19.4076C52.7956 19.1686 53.0642 18.9815 53.3841 18.8491C53.704 18.7137 54.0662 18.6475 54.4706 18.6475C54.7121 18.6475 54.9323 18.6618 55.1375 18.6906C55.3398 18.7194 55.5601 18.7799 55.7955 18.8692C55.7864 19.0132 55.7562 19.1514 55.705 19.2896C55.6536 19.425 55.5993 19.5632 55.539 19.7013C55.3639 19.6438 55.207 19.6034 55.0711 19.5804C54.9353 19.5574 54.7754 19.5459 54.5883 19.5459C54.1085 19.5459 53.7373 19.6957 53.4777 19.9951C53.2182 20.2946 53.0914 20.738 53.0914 21.3254C53.0914 22.4917 53.6105 23.0762 54.6487 23.0762C54.8327 23.0762 54.9957 23.0647 55.1375 23.0417C55.2794 23.0186 55.4363 22.9783 55.6113 22.9207Z" fill="white"/>
<path d="M56.7405 18.7367C56.9608 18.7137 57.1691 18.6936 57.3622 18.6763C57.5554 18.659 57.7697 18.6504 58.005 18.6504C58.2797 18.6504 58.5543 18.6734 58.8199 18.7224C59.0885 18.7713 59.33 18.8548 59.5442 18.9757C59.7585 19.0967 59.9336 19.2637 60.0663 19.4711C60.1991 19.6784 60.2655 19.9433 60.2655 20.2629C60.2655 20.453 60.2414 20.6229 60.1901 20.7697C60.1387 20.9166 60.0753 21.0433 59.9969 21.1527C59.9184 21.2622 59.8339 21.3572 59.7464 21.4349C59.6559 21.5126 59.5714 21.576 59.4899 21.625L59.3631 21.7027L60.6789 23.8854C60.5794 23.8941 60.4738 23.9055 60.3621 23.9142C60.2504 23.9228 60.1387 23.9286 60.0241 23.9286C59.8339 23.9286 59.6469 23.9142 59.4597 23.8854L58.0442 21.4896L58.2254 21.4032C58.2948 21.3686 58.3793 21.3255 58.4819 21.2736C58.5815 21.2218 58.6781 21.1556 58.7716 21.0749C58.8651 20.9972 58.9436 20.8993 59.007 20.787C59.0734 20.6747 59.1035 20.5422 59.1035 20.3896C59.1035 20.0872 59.013 19.8655 58.832 19.7244C58.6508 19.5833 58.4185 19.5113 58.1318 19.5113C58.0201 19.5113 57.9205 19.52 57.83 19.5315V23.8883C57.7394 23.897 57.6489 23.9055 57.5584 23.9142C57.4679 23.9228 57.3803 23.9257 57.2958 23.9257C57.2113 23.9257 57.1208 23.9228 57.0242 23.92C56.9276 23.9142 56.831 23.9055 56.7314 23.8912V18.7367H56.7405Z" fill="white"/>
<path d="M62.3657 22.0539L60.6816 18.7395C60.8929 18.7107 61.1042 18.6963 61.3124 18.6963C61.5025 18.6963 61.6927 18.7107 61.8828 18.7395L62.9512 21.0776L64.0045 18.7395C64.1916 18.7107 64.3818 18.6963 64.5749 18.6963C64.756 18.6963 64.9491 18.7107 65.1543 18.7395L63.4703 22.0539V23.9054C63.3707 23.9198 63.2741 23.9284 63.1836 23.9342C63.0931 23.94 63.0025 23.9429 62.912 23.9429C62.8275 23.9429 62.7369 23.94 62.6464 23.9342C62.5528 23.9284 62.4593 23.9198 62.3657 23.9054V22.0539Z" fill="white"/>
<path d="M65.7578 18.7167C65.9872 18.6966 66.2226 18.6821 66.458 18.6707C66.6934 18.6591 66.9318 18.6533 67.1733 18.6533C67.4237 18.6533 67.6772 18.6764 67.9368 18.7253C68.1963 18.7743 68.4287 18.8636 68.637 18.9931C68.8452 19.1256 69.0142 19.307 69.144 19.5432C69.2738 19.7764 69.3401 20.0816 69.3401 20.456C69.3401 20.8303 69.2738 21.1327 69.144 21.363C69.0142 21.5963 68.8452 21.7777 68.64 21.913C68.4347 22.0484 68.2054 22.1376 67.9519 22.1866C67.6984 22.2355 67.4478 22.2585 67.2034 22.2585C67.137 22.2585 67.0766 22.2585 67.0194 22.2557C66.962 22.2528 66.9076 22.25 66.8563 22.2442V23.9028C66.7598 23.9172 66.6692 23.9258 66.5787 23.9316C66.4882 23.9374 66.4006 23.9374 66.3161 23.9374C66.2346 23.9374 66.1471 23.9345 66.0536 23.9316C65.957 23.9258 65.8604 23.9172 65.7608 23.9028V18.7167H65.7578ZM66.8563 21.3717C66.9167 21.3803 66.974 21.386 67.0254 21.386C67.0766 21.386 67.143 21.386 67.2185 21.386C67.3423 21.386 67.466 21.3717 67.5867 21.34C67.7074 21.3084 67.813 21.2565 67.9066 21.1845C68.0002 21.1125 68.0726 21.0175 68.1269 20.9023C68.1812 20.7842 68.2084 20.6402 68.2084 20.4675C68.2084 20.2919 68.1812 20.1421 68.1269 20.0183C68.0726 19.8973 67.9972 19.7994 67.9066 19.7245C67.813 19.6497 67.7074 19.5978 67.5867 19.5662C67.466 19.5345 67.3423 19.5201 67.2185 19.5201C67.1642 19.5201 67.1129 19.5201 67.0646 19.5229C67.0163 19.5258 66.9469 19.5316 66.8563 19.5403V21.3717Z" fill="white"/>
<path d="M71.197 19.6271H69.851C69.8207 19.4831 69.8057 19.3333 69.8057 19.175C69.8057 19.0253 69.8207 18.8813 69.851 18.7373H73.6506C73.6808 18.8813 73.6959 19.0281 73.6959 19.175C73.6959 19.3333 73.6808 19.4831 73.6506 19.6271H72.3045V23.8974C72.214 23.9061 72.1235 23.9147 72.033 23.9234C71.9425 23.932 71.8549 23.9349 71.7704 23.9349C71.6859 23.9349 71.5923 23.932 71.4958 23.9291C71.3991 23.9234 71.2996 23.9147 71.2 23.9003V19.6271H71.197Z" fill="white"/>
<path d="M74.4072 18.7375C74.5914 18.7087 74.7754 18.6943 74.9566 18.6943C75.1376 18.6943 75.3217 18.7087 75.5118 18.7375V23.8976C75.3217 23.9265 75.1376 23.9408 74.9626 23.9408C74.7754 23.9408 74.5914 23.9265 74.4072 23.8976V18.7375Z" fill="white"/>
<path d="M78.7689 23.9833C78.3615 23.9833 78.0114 23.9171 77.7156 23.7817C77.4198 23.6493 77.1754 23.4621 76.9852 23.226C76.7951 22.9898 76.6533 22.7106 76.5597 22.3851C76.4662 22.0626 76.4209 21.7084 76.4209 21.3255C76.4209 20.9425 76.4662 20.5883 76.5597 20.26C76.6533 19.9318 76.7951 19.6495 76.9852 19.4105C77.1754 19.1716 77.4198 18.9844 77.7156 18.8519C78.0114 18.7166 78.3615 18.6504 78.7689 18.6504C79.1764 18.6504 79.5264 18.7166 79.8221 18.8519C80.1179 18.9873 80.3624 19.1716 80.5525 19.4105C80.7426 19.6495 80.8845 19.9347 80.9781 20.26C81.0716 20.5883 81.1169 20.9425 81.1169 21.3255C81.1169 21.7084 81.0716 22.0598 80.9781 22.3851C80.8845 22.7077 80.7426 22.987 80.5525 23.226C80.3624 23.4621 80.1179 23.6493 79.8221 23.7817C79.5264 23.9171 79.1764 23.9833 78.7689 23.9833ZM78.7689 23.1079C79.5476 23.1079 79.9339 22.5148 79.9339 21.3284C79.9339 20.7351 79.8402 20.2888 79.6532 19.9922C79.466 19.6956 79.1733 19.5459 78.7779 19.5459C77.9903 19.5459 77.5979 20.1391 77.5979 21.3255C77.5979 22.5148 77.9873 23.1079 78.7689 23.1079Z" fill="white"/>
<path d="M82.0283 18.7375C82.1852 18.7087 82.3331 18.6943 82.472 18.6943C82.6229 18.6943 82.7768 18.7087 82.9397 18.7375L85.0312 22.0231V18.7375C85.2123 18.7087 85.3843 18.6943 85.5503 18.6943C85.7042 18.6943 85.8551 18.7087 85.9999 18.7375V23.8976C85.84 23.9265 85.6951 23.9408 85.5624 23.9408C85.4205 23.9408 85.2696 23.9265 85.1037 23.8976L82.9971 20.6178V23.8976C82.8371 23.9265 82.6741 23.9408 82.5081 23.9408C82.3422 23.9408 82.1822 23.9265 82.0283 23.8976V18.7375Z" fill="white"/>
</svg>
