<svg width="31" height="30" viewBox="0 0 31 30" fill="none" xmlns="http://www.w3.org/2000/svg">
<g clip-path="url(#clip0_1720_2336)">
<path d="M27.4162 8.88969C27.4353 9.15617 27.4353 9.42271 27.4353 9.6892C27.4353 17.8173 21.2488 27.1828 9.94162 27.1828C6.45811 27.1828 3.22209 26.1739 0.5 24.4227C0.994941 24.4798 1.47078 24.4988 1.98477 24.4988C4.85908 24.4988 7.50506 23.528 9.61801 21.872C6.91496 21.8148 4.64973 20.0445 3.86926 17.608C4.25 17.665 4.63068 17.7031 5.03047 17.7031C5.58248 17.7031 6.13455 17.627 6.64848 17.4938C3.83123 16.9227 1.71822 14.4481 1.71822 11.4595V11.3834C2.53672 11.8402 3.48857 12.1258 4.49738 12.1638C2.84129 11.0597 1.75631 9.17522 1.75631 7.04322C1.75631 5.90111 2.06082 4.85416 2.59385 3.94045C5.62051 7.67141 10.17 10.1079 15.2715 10.3745C15.1763 9.9176 15.1192 9.44176 15.1192 8.96586C15.1192 5.5775 17.8603 2.81738 21.2677 2.81738C23.038 2.81738 24.6369 3.55977 25.7601 4.759C27.1496 4.49252 28.4821 3.97854 29.6623 3.27424C29.2054 4.70193 28.2346 5.90117 26.9593 6.66254C28.1966 6.52936 29.3959 6.18664 30.4999 5.7108C29.6625 6.92902 28.6154 8.014 27.4162 8.88969Z" fill="white"/>
</g>
<defs>
<clipPath id="clip0_1720_2336">
<rect width="30" height="30" fill="white" transform="translate(0.5)"/>
</clipPath>
</defs>
</svg>
