<svg width="190" height="118" viewBox="0 0 190 118" fill="none" xmlns="http://www.w3.org/2000/svg">
<path d="M14.432 42.364C11.7627 42.364 9.37067 41.9307 7.256 41.064C5.14133 40.1973 3.44267 38.9147 2.16 37.216C0.912 35.5173 0.253334 33.472 0.184 31.08H9.648C9.78667 32.432 10.2547 33.472 11.052 34.2C11.8493 34.8933 12.8893 35.24 14.172 35.24C15.4893 35.24 16.5293 34.9453 17.292 34.356C18.0547 33.732 18.436 32.8827 18.436 31.808C18.436 30.9067 18.124 30.1613 17.5 29.572C16.9107 28.9827 16.1653 28.4973 15.264 28.116C14.3973 27.7347 13.1493 27.3013 11.52 26.816C9.16267 26.088 7.23867 25.36 5.748 24.632C4.25733 23.904 2.97467 22.8293 1.9 21.408C0.825334 19.9867 0.288 18.132 0.288 15.844C0.288 12.4467 1.51867 9.79467 3.98 7.888C6.44133 5.94667 9.648 4.976 13.6 4.976C17.6213 4.976 20.8627 5.94667 23.324 7.888C25.7853 9.79467 27.1027 12.464 27.276 15.896H17.656C17.5867 14.7173 17.1533 13.7987 16.356 13.14C15.5587 12.4467 14.536 12.1 13.288 12.1C12.2133 12.1 11.3467 12.3947 10.688 12.984C10.0293 13.5387 9.7 14.3533 9.7 15.428C9.7 16.6067 10.2547 17.5253 11.364 18.184C12.4733 18.8427 14.2067 19.5533 16.564 20.316C18.9213 21.1133 20.828 21.876 22.284 22.604C23.7747 23.332 25.0573 24.3893 26.132 25.776C27.2067 27.1627 27.744 28.948 27.744 31.132C27.744 33.212 27.2067 35.1013 26.132 36.8C25.092 38.4987 23.5667 39.8507 21.556 40.856C19.5453 41.8613 17.1707 42.364 14.432 42.364ZM46.4242 42.416C43.5815 42.416 41.0162 41.8093 38.7282 40.596C36.4749 39.3827 34.6895 37.6493 33.3722 35.396C32.0895 33.1427 31.4482 30.508 31.4482 27.492C31.4482 24.5107 32.1069 21.8933 33.4242 19.64C34.7415 17.352 36.5442 15.6013 38.8322 14.388C41.1202 13.1747 43.6855 12.568 46.5282 12.568C49.3709 12.568 51.9362 13.1747 54.2242 14.388C56.5122 15.6013 58.3149 17.352 59.6322 19.64C60.9495 21.8933 61.6082 24.5107 61.6082 27.492C61.6082 30.4733 60.9322 33.108 59.5802 35.396C58.2629 37.6493 56.4429 39.3827 54.1202 40.596C51.8322 41.8093 49.2669 42.416 46.4242 42.416ZM46.4242 34.72C48.1229 34.72 49.5615 34.096 50.7402 32.848C51.9535 31.6 52.5602 29.8147 52.5602 27.492C52.5602 25.1693 51.9709 23.384 50.7922 22.136C49.6482 20.888 48.2269 20.264 46.5282 20.264C44.7949 20.264 43.3562 20.888 42.2122 22.136C41.0682 23.3493 40.4962 25.1347 40.4962 27.492C40.4962 29.8147 41.0509 31.6 42.1602 32.848C43.3042 34.096 44.7255 34.72 46.4242 34.72ZM64.5576 27.492C64.5576 24.476 65.1642 21.8413 66.3776 19.588C67.6256 17.3347 69.3416 15.6013 71.5256 14.388C73.7442 13.1747 76.2749 12.568 79.1176 12.568C82.7576 12.568 85.7909 13.5213 88.2176 15.428C90.6789 17.3347 92.2909 20.0213 93.0536 23.488H83.5896C82.7922 21.2693 81.2496 20.16 78.9616 20.16C77.3322 20.16 76.0322 20.8013 75.0616 22.084C74.0909 23.332 73.6056 25.1347 73.6056 27.492C73.6056 29.8493 74.0909 31.6693 75.0616 32.952C76.0322 34.2 77.3322 34.824 78.9616 34.824C81.2496 34.824 82.7922 33.7147 83.5896 31.496H93.0536C92.2909 34.8933 90.6789 37.5627 88.2176 39.504C85.7562 41.4453 82.7229 42.416 79.1176 42.416C76.2749 42.416 73.7442 41.8093 71.5256 40.596C69.3416 39.3827 67.6256 37.6493 66.3776 35.396C65.1642 33.1427 64.5576 30.508 64.5576 27.492ZM102.282 9.968C100.722 9.968 99.4393 9.51733 98.4339 8.616C97.4633 7.68 96.9779 6.536 96.9779 5.184C96.9779 3.79733 97.4633 2.65333 98.4339 1.752C99.4393 0.815997 100.722 0.347997 102.282 0.347997C103.807 0.347997 105.055 0.815997 106.026 1.752C107.031 2.65333 107.534 3.79733 107.534 5.184C107.534 6.536 107.031 7.68 106.026 8.616C105.055 9.51733 103.807 9.968 102.282 9.968ZM106.702 12.984V42H97.8099V12.984H106.702ZM111.378 27.44C111.378 24.4587 111.933 21.8413 113.042 19.588C114.186 17.3347 115.729 15.6013 117.67 14.388C119.611 13.1747 121.778 12.568 124.17 12.568C126.215 12.568 128.001 12.984 129.526 13.816C131.086 14.648 132.282 15.74 133.114 17.092V12.984H142.006V42H133.114V37.892C132.247 39.244 131.034 40.336 129.474 41.168C127.949 42 126.163 42.416 124.118 42.416C121.761 42.416 119.611 41.8093 117.67 40.596C115.729 39.348 114.186 37.5973 113.042 35.344C111.933 33.056 111.378 30.4213 111.378 27.44ZM133.114 27.492C133.114 25.2733 132.49 23.5227 131.242 22.24C130.029 20.9573 128.538 20.316 126.77 20.316C125.002 20.316 123.494 20.9573 122.246 22.24C121.033 23.488 120.426 25.2213 120.426 27.44C120.426 29.6587 121.033 31.4267 122.246 32.744C123.494 34.0267 125.002 34.668 126.77 34.668C128.538 34.668 130.029 34.0267 131.242 32.744C132.49 31.4613 133.114 29.7107 133.114 27.492ZM157.331 3.52V42H148.439V3.52H157.331ZM10.116 67.496V104H1.224V67.496H10.116ZM53.5839 74.672C57.1893 74.672 60.0493 75.764 62.1639 77.948C64.3133 80.132 65.3879 83.1653 65.3879 87.048V104H56.5479V88.244C56.5479 86.372 56.0453 84.9333 55.0399 83.928C54.0693 82.888 52.7173 82.368 50.9839 82.368C49.2506 82.368 47.8813 82.888 46.8759 83.928C45.9053 84.9333 45.4199 86.372 45.4199 88.244V104H36.5799V88.244C36.5799 86.372 36.0773 84.9333 35.0719 83.928C34.1013 82.888 32.7493 82.368 31.0159 82.368C29.2826 82.368 27.9133 82.888 26.9079 83.928C25.9373 84.9333 25.4519 86.372 25.4519 88.244V104H16.5599V74.984H25.4519V78.624C26.3533 77.4107 27.5319 76.4573 28.9879 75.764C30.4439 75.036 32.0906 74.672 33.9279 74.672C36.1119 74.672 38.0533 75.14 39.7519 76.076C41.4853 77.012 42.8373 78.3467 43.8079 80.08C44.8133 78.4853 46.1826 77.1853 47.9159 76.18C49.6493 75.1747 51.5386 74.672 53.5839 74.672ZM80.4988 79.092C81.3655 77.74 82.5615 76.648 84.0868 75.816C85.6121 74.984 87.3975 74.568 89.4428 74.568C91.8348 74.568 94.0015 75.1747 95.9428 76.388C97.8841 77.6013 99.4095 79.3347 100.519 81.588C101.663 83.8413 102.235 86.4587 102.235 89.44C102.235 92.4213 101.663 95.056 100.519 97.344C99.4095 99.5973 97.8841 101.348 95.9428 102.596C94.0015 103.809 91.8348 104.416 89.4428 104.416C87.4321 104.416 85.6468 104 84.0868 103.168C82.5615 102.336 81.3655 101.261 80.4988 99.944V117.832H71.6068V74.984H80.4988V79.092ZM93.1868 89.44C93.1868 87.2213 92.5628 85.488 91.3148 84.24C90.1015 82.9573 88.5935 82.316 86.7908 82.316C85.0228 82.316 83.5148 82.9573 82.2668 84.24C81.0535 85.5227 80.4468 87.2733 80.4468 89.492C80.4468 91.7107 81.0535 93.4613 82.2668 94.744C83.5148 96.0267 85.0228 96.668 86.7908 96.668C88.5588 96.668 90.0668 96.0267 91.3148 94.744C92.5628 93.4267 93.1868 91.6587 93.1868 89.44ZM105.132 89.44C105.132 86.4587 105.686 83.8413 106.796 81.588C107.94 79.3347 109.482 77.6013 111.424 76.388C113.365 75.1747 115.532 74.568 117.924 74.568C119.969 74.568 121.754 74.984 123.28 75.816C124.84 76.648 126.036 77.74 126.868 79.092V74.984H135.76V104H126.868V99.892C126.001 101.244 124.788 102.336 123.228 103.168C121.702 104 119.917 104.416 117.872 104.416C115.514 104.416 113.365 103.809 111.424 102.596C109.482 101.348 107.94 99.5973 106.796 97.344C105.686 95.056 105.132 92.4213 105.132 89.44ZM126.868 89.492C126.868 87.2733 126.244 85.5227 124.996 84.24C123.782 82.9573 122.292 82.316 120.524 82.316C118.756 82.316 117.248 82.9573 116 84.24C114.786 85.488 114.18 87.2213 114.18 89.44C114.18 91.6587 114.786 93.4267 116 94.744C117.248 96.0267 118.756 96.668 120.524 96.668C122.292 96.668 123.782 96.0267 124.996 94.744C126.244 93.4613 126.868 91.7107 126.868 89.492ZM140.425 89.492C140.425 86.476 141.031 83.8413 142.245 81.588C143.493 79.3347 145.209 77.6013 147.393 76.388C149.611 75.1747 152.142 74.568 154.985 74.568C158.625 74.568 161.658 75.5213 164.085 77.428C166.546 79.3347 168.158 82.0213 168.921 85.488H159.457C158.659 83.2693 157.117 82.16 154.829 82.16C153.199 82.16 151.899 82.8013 150.929 84.084C149.958 85.332 149.473 87.1347 149.473 89.492C149.473 91.8493 149.958 93.6693 150.929 94.952C151.899 96.2 153.199 96.824 154.829 96.824C157.117 96.824 158.659 95.7147 159.457 93.496H168.921C168.158 96.8933 166.546 99.5627 164.085 101.504C161.623 103.445 158.59 104.416 154.985 104.416C152.142 104.416 149.611 103.809 147.393 102.596C145.209 101.383 143.493 99.6493 142.245 97.396C141.031 95.1427 140.425 92.508 140.425 89.492ZM189.849 96.46V104H185.325C182.101 104 179.588 103.22 177.785 101.66C175.982 100.065 175.081 97.4827 175.081 93.912V82.368H171.545V74.984H175.081V67.912H183.973V74.984H189.797V82.368H183.973V94.016C183.973 94.8827 184.181 95.5067 184.597 95.888C185.013 96.2693 185.706 96.46 186.677 96.46H189.849Z" fill="black"/>
</svg>
