<svg width="14" height="14" viewBox="0 0 14 14" fill="none" xmlns="http://www.w3.org/2000/svg">
<path d="M0.98752 1.40247L0.98752 1.7947C0.98752 2.05434 1.19744 2.26426 1.45708 2.26426L11.3151 2.2615L0.932277 12.6444C0.749976 12.8267 0.749976 13.125 0.932277 13.3073L1.20849 13.5835C1.39079 13.7658 1.6891 13.7658 1.8714 13.5835L12.2543 3.20062L12.2543 13.0614C12.2543 13.3211 12.4642 13.531 12.7238 13.531L13.1161 13.531C13.3757 13.531 13.5856 13.3211 13.5856 13.0614L13.5884 1.40247C13.5884 1.14283 13.3785 0.932908 13.1188 0.932908L1.45985 0.935671C1.19468 0.935671 0.98752 1.14283 0.98752 1.40247Z" fill="#419078"/>
</svg>
