<svg width="92" height="72" viewBox="0 0 92 72" fill="none" xmlns="http://www.w3.org/2000/svg">
<path d="M31.9444 0.125H11.5C5.15903 0.125 0 5.29805 0 11.6562V29.5938C0 35.952 5.15903 41.125 11.5 41.125H20.4444V42.4062C20.4444 45.9457 17.5854 48.8125 14.0556 48.8125H12.7778C8.54514 48.8125 5.11111 52.2559 5.11111 56.5V64.1875C5.11111 68.4316 8.54514 71.875 12.7778 71.875H14.0556C30.2674 71.875 43.4444 58.6621 43.4444 42.4062V11.6562C43.4444 5.29805 38.2854 0.125 31.9444 0.125ZM35.7778 42.4062C35.7778 54.418 26.0347 64.1875 14.0556 64.1875H12.7778V56.5H14.0556C21.8021 56.5 28.1111 50.1738 28.1111 42.4062V33.4375H11.5C9.39167 33.4375 7.66667 31.7078 7.66667 29.5938V11.6562C7.66667 9.54219 9.39167 7.8125 11.5 7.8125H31.9444C34.0528 7.8125 35.7778 9.54219 35.7778 11.6562V42.4062ZM80.5 0.125H60.0556C53.7146 0.125 48.5556 5.29805 48.5556 11.6562V29.5938C48.5556 35.952 53.7146 41.125 60.0556 41.125H69V42.4062C69 45.9457 66.141 48.8125 62.6111 48.8125H61.3333C57.1007 48.8125 53.6667 52.2559 53.6667 56.5V64.1875C53.6667 68.4316 57.1007 71.875 61.3333 71.875H62.6111C78.8229 71.875 92 58.6621 92 42.4062V11.6562C92 5.29805 86.841 0.125 80.5 0.125ZM84.3333 42.4062C84.3333 54.418 74.5903 64.1875 62.6111 64.1875H61.3333V56.5H62.6111C70.3576 56.5 76.6667 50.1738 76.6667 42.4062V33.4375H60.0556C57.9472 33.4375 56.2222 31.7078 56.2222 29.5938V11.6562C56.2222 9.54219 57.9472 7.8125 60.0556 7.8125H80.5C82.6083 7.8125 84.3333 9.54219 84.3333 11.6562V42.4062Z" fill="#419078"/>
</svg>
